PathFileType	4	(X/Y/Z)	C:/Users/beibeiliu/ov580/test_trc\sequence.42_training_dense_left.trc
DataRate	CameraRate	NumFrames	NumMarkers	Units	OrigDataRate	OrigDataStartFrame	OrigNumFrames
120	120	16	19	mm	120	1	81
Frame#	Time	ThumbCMC			ThumbMCP			ThumbIP			ThumbTip			IndexMCP			IndexPIP			IndexTip			MiddleMCP			MiddlePIP			MiddleTip			RingMCP			RingPIP			RingTip			PinkyMCP			PinkyPIP			PinkyTip			BackHand1			BackHand2			BackHand3	
		X0	Y0	Z0	X1	Y1	Z1	X2	Y2	Z2	X3	Y3	Z3	X4	Y4	Z4	X5	Y5	Z5	X6	Y6	Z6	X7	Y7	Z7	X8	Y8	Z8	X9	Y9	Z9	X10	Y10	Z10	X11	Y11	Z11	X12	Y12	Z12	X13	Y13	Z13	X14	Y14	Z14	X15	Y15	Z15	X16	Y16	Z16	X17	Y17	Z17	X18	Y18	Z18	
0	0	-165.058	50.7156	90.5724	-152.122	38.0386	68.4146	-142.586	32.8919	46.1576	-140.302	25.0481	22.6757	-177.566	55.3204	23.0044	-171.623	45.9322	1.19294	-165.691	27.1638	-21.1327	-197.821	51.8477	16.5783	-198.29	43.0568	-8.35672	-197.681	25.5736	-29.8157	-214.872	45.4061	21.4417	-216.628	39.6963	2.81143	-217.015	29.535	-17.2136	-234.472	36.6712	36.1744	-236.353	32.3146	21.4817	-236.904	29.3297	0.0102103	-216.489	59.4073	65.3003	-217.417	62.678	96.1044	-192.68	68.6664	78.749	
1	0.00833333	-167.004	49.42	88.1389	-151.934	38.0391	66.8845	-148.653	31.9076	45.9104	-142.102	23.4981	23.304	-178.581	54.3828	21.3672	-173.829	43.4563	-2.86272	-168.606	25.2103	-21.538	-197.629	50.8804	13.9424	-198.007	43.6888	-6.22747	-198.501	24.7744	-29.8556	-219.833	44.4853	23.7206	-216.236	38.5303	2.40709	-216.885	26.6224	-21.9575	-232.188	37.0448	39.9451	-238.406	30.6563	16.6534	-240.874	28.5939	1.36683	-218.856	57.3866	68.9943	-216.784	63.4557	93.2789	-191.866	67.3663	76.8738	
2	0.0166667	-167.959	47.9442	90.1079	-154.735	36.583	69.8192	-146.152	30.3532	43.0215	-143.499	23.4284	28.1361	-174.353	53.4961	18.3188	-175.194	43.6069	-0.569344	-166.369	28.1018	-18.6207	-200.932	50.8412	17.4823	-199.152	42.1604	-6.89226	-196.893	26.2629	-28.5976	-215.668	45.3296	25.5475	-217.391	35.713	-1.40002	-218.629	25.1145	-20.2763	-235.103	36.9321	38.9377	-239.381	29.7301	19.2832	-239.721	25.2792	1.76794	-220.384	57.5672	68.579	-216.55	61.5804	93.2381	-194.129	66.2815	79.8285	
3	0.025	-165.795	48.2518	85.2651	-156.682	35.6839	66.6667	-148.609	29.4932	45.1287	-142.636	22.2828	29.5029	-178.244	52.7205	18.9322	-172.248	42.6279	-3.9293	-173.415	27.1557	-17.6946	-199.704	51.187	18.7302	-200.797	40.9846	-8.78449	-201.162	24.7735	-28.9191	-216.732	45.2623	22.8972	-219.772	36.1827	-0.109972	-218.404	28.2115	-16.1502	-231.598	37.5701	39.7279	-236.927	32.3171	18.6861	-242.099	26.9537	1.35168	-219.174	56.7953	65.7068	-221.005	61.1606	92.0833	-193.328	66.6307	76.7801	
4	0.0333333	-171.489	47.3168	89.0035	-156.534	36.1039	64.8846	-146.856	29.5596	46.3432	-141.649	22.0999	27.1217	-177.128	54.6201	21.8617	-175.515	45.3608	-0.0463318	-170.012	28.6664	-18.4393	-199.403	51.5094	12.697	-199.302	39.7185	-10.6783	-200.397	26.6698	-28.4281	-222.563	43.3943	24.2273	-220.268	36.847	-1.86402	-221.459	25.3452	-20.0572	-238.498	35.3466	37.9627	-236.976	32.1311	19.7445	-243.496	26.2564	0.797464	-221.781	57.9744	66.2033	-217.101	62.599	90.5873	-195.5	65.3724	76.6441	
5	0.0416667	-172.133	47.9454	84.7184	-158.298	36.8991	65.6945	-150.577	30.7252	42.6574	-142.993	22.1564	25.3775	-177.546	54.3825	22.759	-178.96	41.5099	-3.17777	-171.51	27.4911	-18.1151	-204.331	48.9778	13.9372	-201.544	40.7375	-8.68008	-204.144	23.8435	-28.771	-224.291	42.7997	24.0211	-224.367	35.2989	-1.35878	-224.321	26.1728	-17.5108	-237.629	36.3161	37.7657	-238.331	31.8589	21.4704	-244.089	23.7369	2.03973	-219.727	57.8219	69.4563	-220.599	60.7711	92.4003	-193.653	65.766	77.7516	
6	0.05	-169.747	47.6597	84.9533	-155.87	35.7256	64.6255	-151.631	28.045	46.9479	-145.897	21.5001	26.7728	-181.544	50.9762	17.7204	-175.846	42.4313	0.210055	-173.86	25.0422	-18.0462	-205.345	47.3849	13.3675	-201.597	40.4757	-6.76428	-202.244	22.5319	-31.0822	-219.687	42.8109	25.5527	-223.226	34.7852	1.38179	-221.158	25.2351	-21.7015	-239.747	33.5863	37.8971	-241.374	27.6714	16.691	-244.487	22.4913	0.32507	-218.407	54.7532	69.6371	-222.217	59.4495	93.8861	-197.377	65.6753	78.7987	
7	0.0583333	-168.814	46.4381	89.3741	-155.49	33.6575	67.4381	-147.095	27.829	42.7043	-141.642	19.5292	25.7592	-179.46	50.5096	18.4148	-173.899	37.9277	-4.01837	-173.805	23.034	-18.6662	-202.325	46.3158	13.2044	-201.329	37.8391	-7.72382	-197.153	18.965	-32.7418	-218.46	41.3483	23.7554	-224.134	31.8165	0.892296	-222.252	23.1673	-17.9604	-238.888	32.9597	35.0723	-238.961	27.7904	19.6537	-242.755	19.8597	-2.53835	-222.663	52.8461	69.1634	-220.951	58.2592	91.4588	-193.484	65.836	77.326	
8	0.0666667	-168.325	44.2274	86.3258	-155.996	32.1376	64.4721	-150.526	26.1675	44.5077	-144.009	18.6113	22.537	-177.991	49.5425	20.5927	-173.888	36.3509	-4.95675	-166.788	18.4015	-21.2772	-200.342	46.3841	16.2229	-202.182	34.3878	-11.0114	-198.322	18.3365	-30.6856	-219.25	39.5667	22.0064	-222.159	31.1143	0.785575	-217.303	21.0987	-20.8767	-236.888	31.8185	39.2939	-237.362	27.1405	20.298	-242.041	19.8996	-0.895586	-218.708	51.6617	67.024	-220.373	56.4281	94.0052	-193.726	61.8895	78.0635	
9	0.075	-170.432	43.6214	88.6291	-151.644	32.421	65.6814	-144.691	27.187	46.7457	-144.274	19.2052	27.2423	-176.277	49.5588	20.1198	-175.946	40.0543	-0.725762	-169.874	23.0303	-20.3915	-198.317	46.8951	14.1476	-197.377	38.1677	-9.5706	-196.408	21.3007	-29.9708	-215.514	40.5706	20.6575	-221.997	32.0215	1.94209	-217.205	21.0753	-19.2119	-231.493	32.1746	38.9657	-237.399	25.4049	17.5162	-238.492	20.3657	-0.647676	-221.366	50.6451	67.7236	-220.339	55.9654	90.0358	-193.03	61.8509	79.3226	
10	0.0833333	-168.964	49.3432	84.2752	-153.7	38.7578	63.8962	-146.067	33.6415	42.2215	-140.36	27.2436	21.4783	-179.402	56.2016	17.1844	-173.764	49.2586	-4.00893	-170.362	32.6386	-25.5131	-200.309	53.8875	10.4257	-198.698	47.1427	-11.0149	-200.196	31.4143	-33.6499	-221.409	43.6905	20.4624	-221.215	38.5999	-1.65455	-216.139	29.2354	-24.5983	-231.717	36.3906	35.1824	-236.827	31.6541	14.1652	-237.968	26.2155	-3.93534	-221.954	54.1834	65.6809	-220.431	57.4846	86.9522	-196.478	66.1455	76.3423	
11	0.0916667	-174.803	55.9797	76.1645	-152.99	49.0314	54.9492	-145.182	45.8241	33.253	-143.356	40.125	13.3201	-182.367	72.5515	7.85172	-178.221	67.5411	-16.1559	-175.288	57.255	-34.5149	-204.602	68.6936	4.42518	-205.775	64.2236	-22.9386	-202.687	50.7823	-48.565	-223.217	56.7574	12.2676	-221.445	54.3632	-11.8319	-221.39	46.1772	-32.7841	-234.573	47.3082	18.7783	-237.276	42.7231	4.5198	-242.101	35.6841	-17.3313	-225.421	64.1609	54.3309	-226.253	64.1028	79.5961	-196.764	73.6652	65.913	
12	0.1	-181.137	64.4055	49.7948	-164.158	54.7611	30.952	-149.157	52.7985	11.7106	-142.152	49.2277	-8.08903	-191.41	85.511	-12.7014	-187.228	85.0884	-35.4779	-184.851	77.7334	-55.3894	-212.095	79.9442	-17.3958	-214.645	76.538	-44.6559	-213.645	66.8121	-66.8898	-232.468	65.1592	-9.7476	-227.994	64.9959	-36.2253	-226.643	56.8059	-56.0949	-243.159	50.5542	1.71454	-244.452	47.9616	-17.0703	-244.517	43.1103	-41.3832	-227.7	68.3795	32.2508	-229.874	66.6945	61.1803	-206.256	77.9972	47.5835	
13	0.108333	-186.046	60.1938	22.4436	-166.853	53.4872	-0.793768	-155.916	52.0445	-20.8187	-147.884	47.1333	-39.5964	-206.969	81.7094	-38.1067	-204.238	85.8208	-61.6354	-199.401	79.9087	-88.6639	-225.801	76.8041	-47.1915	-225.317	75.0186	-73.1797	-222.751	65.3452	-95.5901	-239.555	61.7611	-40.265	-239.419	59.979	-61.6019	-234.168	53.3833	-83.5997	-248.6	46.7128	-31.5536	-250.757	39.9461	-51.9172	-247.045	36.7981	-70.4608	-236.858	61.0476	3.46929	-237.854	61.4907	30.1492	-216.06	75.2321	20.4729	
14	0.116667	-190.329	52.5749	-9.95099	-173.484	43.4201	-29.4461	-161.204	41.4378	-49.9755	-155.063	36.808	-69.6789	-217.476	70.1165	-71.4299	-216.442	72.172	-94.0934	-210.644	67.1732	-118.592	-233.174	61.9608	-73.9047	-234.421	60.851	-101.832	-230.335	45.1247	-129.151	-246.283	46.1482	-68.3917	-246.86	43.7416	-93.3955	-239.576	37.0886	-112.027	-257.155	27.5336	-59.4671	-257.221	24.3411	-76.5031	-251.511	17.1258	-101.218	-246.632	44.5784	-22.6193	-241.031	45.4386	-0.163484	-224.118	61.9752	-12.8831	
15	0.125	-194.49	35.6449	-36.4566	-178.751	25.2478	-58.5648	-166.282	23.1008	-80.5807	-158.01	16.1729	-93.802	-222.09	50.9593	-95.6425	-220.349	52.4978	-120.919	-218.462	41.5732	-146.912	-242.198	39.2304	-97.1339	-240.371	37.678	-129.289	-235.903	23.0417	-150.085	-252.814	24.0399	-89.5011	-251.554	21.8578	-114.893	-245.254	10.8137	-135.407	-261.544	5.82323	-79.7431	-259.463	3.14818	-99.7873	-252.213	-4.12354	-121.12	-248.403	26.2584	-48.8699	-244.995	28.0518	-22.6115	-228.279	47.2266	-40.2483	
